<svg width="284" height="283" viewBox="0 0 284 283" fill="none" xmlns="http://www.w3.org/2000/svg">
<path d="M274 141.5C274 214.092 214.935 273 142 273C69.0651 273 10 214.092 10 141.5C10 68.9078 69.0651 10 142 10C214.935 10 274 68.9078 274 141.5Z" stroke="#007E22" stroke-width="20"/>
<path d="M112 206L62 233C124.4 302.6 196 262 224 233L172 206V169C184 159 187 159 193 141C199 96 190 84 187 74C184 64 183 53 160 47C137 41 139 42.9091 124 47C102 53 99 65 94 74C89 83 84 125 94 146C102 162.8 109.333 171.667 112 174V206Z" fill="#007E22"/>
</svg>
